<svg width="22" height="38" viewBox="0 0 22 38" fill="none" xmlns="http://www.w3.org/2000/svg">
<path d="M20.75 36.1898C21.0513 35.8891 21.2903 35.532 21.4534 35.1388C21.6165 34.7457 21.7004 34.3242 21.7004 33.8986C21.7004 33.4729 21.6165 33.0514 21.4534 32.6583C21.2903 32.2651 21.0513 31.908 20.75 31.6073L8.14 18.9973L20.75 6.3873C21.3577 5.77963 21.6991 4.95544 21.6991 4.09606C21.6991 3.23667 21.3577 2.41248 20.75 1.8048C20.1423 1.19712 19.3181 0.85574 18.4587 0.85574C17.5994 0.85574 16.7752 1.19712 16.1675 1.8048L1.24999 16.7223C0.948707 17.023 0.709678 17.3801 0.546588 17.7733C0.383498 18.1664 0.299553 18.5879 0.299553 19.0136C0.299554 19.4392 0.383499 19.8607 0.546588 20.2538C0.709678 20.647 0.948708 21.0041 1.24999 21.3048L16.1675 36.2223C17.4025 37.4573 19.4825 37.4573 20.75 36.1898Z" fill="#303030"/>
</svg>
