<svg width="23" height="37" viewBox="0 0 23 37" fill="none" xmlns="http://www.w3.org/2000/svg">
<path d="M1.66321 1.3102C1.36193 1.61087 1.1229 1.968 0.959806 2.36117C0.796717 2.75433 0.712769 3.1758 0.712769 3.60145C0.712769 4.02709 0.796717 4.44856 0.959806 4.84172C1.1229 5.23489 1.36193 5.59203 1.66321 5.8927L14.2732 18.5027L1.66321 31.1127C1.05554 31.7204 0.714145 32.5446 0.714145 33.4039C0.714145 34.2633 1.05554 35.0875 1.66321 35.6952C2.27089 36.3029 3.09508 36.6443 3.95446 36.6443C4.81385 36.6443 5.63803 36.3029 6.24571 35.6952L21.1632 20.7777C21.4645 20.477 21.7035 20.1199 21.8666 19.7267C22.0297 19.3336 22.1137 18.9121 22.1137 18.4864C22.1137 18.0608 22.0297 17.6393 21.8666 17.2462C21.7035 16.853 21.4645 16.4959 21.1632 16.1952L6.24571 1.2777C5.01071 0.0426955 2.93071 0.0426963 1.66321 1.3102Z" fill="#303030"/>
</svg>
