<svg width="501" height="501" viewBox="0 0 501 501" fill="none" xmlns="http://www.w3.org/2000/svg">
<rect x="0.844971" y="0.952148" width="500" height="500" rx="67" fill="white"/>
<path d="M253.52 462.142V212.266H364.877C384.019 212.266 399.798 215.887 412.214 223.13C424.63 230.373 433.813 240.332 439.763 253.007C445.712 265.423 448.687 279.65 448.687 295.687C448.687 320.52 440.927 340.437 425.406 355.44C410.145 370.443 389.451 377.945 363.325 377.945H295.812V462.142H253.52ZM295.812 344.576H355.565C372.379 344.576 385.054 340.179 393.59 331.384C402.126 322.589 406.394 310.69 406.394 295.687C406.394 279.65 402.255 267.233 393.978 258.439C385.959 249.644 373.802 245.246 357.505 245.246H295.812V344.576Z" fill="black"/>
<path d="M265.758 308.334C263.756 308.334 261.753 308.167 259.751 307.834C257.748 307.834 255.579 307.667 253.243 307.333C252.909 307.333 252.075 306.832 250.74 305.831C249.405 305.164 248.404 304.83 247.736 304.83C245.734 304.83 243.565 304.663 241.229 304.329C239.226 304.329 237.057 304.162 234.721 303.829C234.387 303.495 234.053 302.994 233.72 302.327C233.72 301.993 233.386 301.826 232.718 301.826C232.385 301.826 232.218 301.826 232.218 301.826C232.551 302.16 232.551 302.327 232.218 302.327C231.884 302.327 231.05 301.993 229.715 301.326C228.714 300.658 227.879 300.158 227.212 299.824V298.823C225.877 298.489 225.042 297.988 224.709 297.321C224.375 296.987 224.041 296.82 223.708 296.82H222.706C222.039 296.82 221.705 296.653 221.705 296.32C220.37 295.652 218.702 294.651 216.699 293.316C214.697 292.315 213.362 291.314 212.694 290.312C211.359 289.979 210.525 289.478 210.191 288.811C209.858 288.477 209.357 287.976 208.69 287.309C208.356 286.641 208.022 286.308 207.688 286.308C207.688 286.641 207.521 286.641 207.188 286.308C205.853 284.305 204.184 282.637 202.182 281.302C202.182 280.968 202.015 280.634 201.681 280.301C201.681 280.301 201.681 280.134 201.681 279.8C201.014 279.8 200.513 279.633 200.179 279.299C199.846 278.632 199.679 278.131 199.679 277.798C199.679 277.13 199.345 276.796 198.678 276.796C198.344 275.128 197.843 273.96 197.176 273.292C196.508 272.625 195.841 271.623 195.173 270.289C194.84 269.621 194.673 268.954 194.673 268.286C194.673 267.285 194.339 266.784 193.672 266.784V266.284C194.005 265.616 193.505 263.781 192.17 260.777C191.169 257.44 190.668 254.603 190.668 252.267L189.667 251.766C188.666 250.098 187.998 248.095 187.664 245.759C187.664 243.423 187.831 241.087 188.165 238.751C188.832 236.081 188.832 234.913 188.165 235.246C187.497 235.58 187.497 233.912 188.165 230.241L191.669 223.232C191.669 222.565 191.502 221.897 191.169 221.23C190.835 220.562 190.668 220.062 190.668 219.728C190.668 219.394 190.835 219.06 191.169 218.727C191.502 218.393 191.669 218.059 191.669 217.726C192.003 217.058 192.17 216.057 192.17 214.722C192.17 213.387 192.337 212.553 192.67 212.219C193.004 211.551 193.505 211.051 194.172 210.717C194.84 210.05 195.34 209.549 195.674 209.215L198.177 203.208C198.844 202.541 199.345 202.04 199.679 201.706C200.346 201.039 200.847 200.371 201.181 199.704C201.848 198.703 202.349 197.868 202.682 197.201C203.016 196.2 203.517 195.199 204.184 194.197C204.518 193.53 205.018 192.862 205.686 192.195C206.687 191.527 207.355 191.027 207.688 190.693C209.357 189.692 210.692 189.191 211.693 189.191C213.028 189.191 213.862 190.526 214.196 193.196L213.696 195.699C212.361 197.368 211.026 198.87 209.691 200.205C208.356 201.206 206.854 202.374 205.185 203.709C205.185 204.042 205.018 204.543 204.685 205.211C204.685 205.544 204.685 206.045 204.685 206.712C204.017 206.712 203.684 207.046 203.684 207.714C203.684 208.047 203.517 208.548 203.183 209.215C203.183 209.549 202.682 210.216 201.681 211.218C201.347 211.885 201.014 212.72 200.68 213.721C200.68 214.388 200.513 215.056 200.179 215.723L198.678 216.724L198.177 228.739C198.511 229.072 198.844 229.072 199.178 228.739C199.512 229.406 199.679 230.407 199.679 231.742V232.243L199.178 232.744V236.748C198.844 237.082 198.678 237.416 198.678 237.75C198.678 238.083 198.844 238.584 199.178 239.251C199.512 239.585 199.679 240.086 199.679 240.753C199.345 241.087 199.178 241.587 199.178 242.255C199.178 242.922 199.512 243.59 200.179 244.257V245.759C200.847 246.76 201.681 247.761 202.682 248.763C203.684 249.43 204.518 250.098 205.185 250.765L209.19 252.267C215.197 256.605 219.703 259.609 222.706 261.278C225.71 262.946 230.716 264.782 237.724 266.784C240.394 267.452 243.064 268.286 245.734 269.287C248.404 269.955 251.074 270.289 253.744 270.289C254.077 270.289 254.244 270.455 254.244 270.789C254.244 270.789 254.411 270.789 254.745 270.789C256.08 270.789 257.248 270.956 258.249 271.29C259.584 271.623 260.919 271.79 262.254 271.79C262.587 271.79 262.921 271.79 263.255 271.79C263.589 271.457 263.922 271.29 264.256 271.29C264.924 271.29 265.424 271.457 265.758 271.79C266.092 271.79 266.425 271.79 266.759 271.79C269.429 271.79 272.099 271.79 274.769 271.79C277.439 271.79 279.942 271.623 282.278 271.29C284.948 271.29 287.617 270.956 290.287 270.289C292.957 269.621 295.46 269.287 297.796 269.287C302.469 268.954 306.974 268.119 311.313 266.784C315.985 265.116 320.49 263.614 324.829 262.279C325.162 261.945 327.999 260.777 333.339 258.775C339.012 256.439 344.853 253.936 350.86 251.266C352.195 247.261 352.862 242.422 352.862 236.748C352.862 227.404 350.86 219.06 346.855 211.718C346.855 211.718 346.021 211.218 344.352 210.217C342.683 208.882 341.682 208.214 341.349 208.214V207.213C341.349 205.544 340.514 204.71 338.846 204.71C337.177 204.376 335.675 203.375 334.34 201.706C333.673 200.705 332.838 199.871 331.837 199.203V198.703C330.836 198.035 330.669 197.535 331.337 197.201C332.338 196.533 333.005 196.033 333.339 195.699L332.338 194.698H331.837C331.17 194.03 330.335 193.53 329.334 193.196C328.333 192.862 327.499 192.195 326.831 191.194L324.328 189.191C323.994 188.524 323.327 188.19 322.326 188.19C321.325 188.19 320.49 188.023 319.823 187.689C318.488 186.688 316.986 185.52 315.317 184.185C313.649 182.85 311.98 181.849 310.311 181.182H309.811C308.476 180.514 307.141 179.68 305.806 178.679C304.805 177.678 303.47 176.843 301.801 176.176C301.467 175.508 300.967 175.508 300.299 176.176C299.966 176.509 299.632 176.509 299.298 176.176C297.963 175.508 296.795 174.507 295.794 173.172C294.793 171.503 293.458 170.669 291.789 170.669H291.289C290.287 170.002 289.453 169 288.786 167.666C288.452 165.997 287.951 164.829 287.284 164.161C284.28 162.493 281.277 161.325 278.273 160.657C275.269 159.99 272.266 159.155 269.262 158.154C267.26 157.153 264.757 156.652 261.753 156.652C259.083 156.319 256.914 155.985 255.245 155.651C253.243 154.984 252.242 153.982 252.242 152.648C252.242 150.979 253.91 149.31 257.248 147.641C258.583 146.974 260.084 146.64 261.753 146.64C263.422 146.307 264.924 146.14 266.259 146.14C269.93 146.14 275.603 145.138 283.279 143.136C291.289 141.134 300.299 138.464 310.311 135.127C320.323 131.455 330.002 127.618 339.346 123.613C341.349 122.945 342.85 122.278 343.851 121.61C345.186 120.943 346.188 121.11 346.855 122.111C346.188 122.111 345.854 122.612 345.854 123.613C347.523 123.613 348.524 123.112 348.858 122.111C349.525 120.776 350.192 119.441 350.86 118.106H351.361L360.872 113.1C362.207 112.766 363.375 112.933 364.376 113.601C365.711 113.934 366.879 113.768 367.88 113.1C367.547 112.433 367.046 111.932 366.379 111.598C366.045 110.931 366.379 110.263 367.38 109.596C368.047 108.928 368.548 108.595 368.882 108.595C370.884 107.26 372.719 106.425 374.388 106.092C376.391 105.424 377.892 104.089 378.894 102.087C384.233 98.4158 388.739 94.5779 392.41 90.5731C396.081 86.2346 397.916 82.2298 397.916 78.5587C397.916 73.8864 394.579 69.8816 387.904 66.5443C381.563 62.8732 370.05 59.8696 353.363 57.5335C352.695 57.5335 352.028 57.5335 351.361 57.5335C350.693 57.1998 350.026 57.0329 349.358 57.0329C345.02 57.0329 340.848 56.0317 336.843 54.0293C337.177 55.3642 336.509 56.0317 334.841 56.0317C330.168 55.698 325.496 55.5311 320.824 55.5311C316.152 55.1974 311.646 55.0305 307.308 55.0305C299.966 55.0305 293.124 55.1974 286.783 55.5311C280.776 55.8648 276.437 56.1986 273.768 56.5323C271.098 56.866 268.261 57.1998 265.257 57.5335C262.587 57.5335 259.918 57.8672 257.248 58.5347C255.245 57.8672 253.243 58.201 251.241 59.5359H250.74C248.404 59.8696 246.068 60.2034 243.732 60.5371C241.395 60.8708 238.892 61.3714 236.223 62.0389C234.888 62.3726 233.386 62.7064 231.717 63.0401C230.048 63.0401 228.38 63.3738 226.711 64.0413L216.699 66.0437C215.364 67.0449 213.862 67.8792 212.194 68.5467C210.859 68.8804 209.357 68.8804 207.688 68.5467H207.188L197.676 71.0497H197.176C196.175 71.0497 195.006 70.3822 193.672 69.0473C192.67 67.3786 192.003 65.8768 191.669 64.5419C191.335 66.5443 190.835 68.7136 190.167 71.0497C189.5 73.3858 188.332 74.5539 186.663 74.5539L172.646 79.0593C171.311 79.393 169.81 79.5599 168.141 79.5599C166.472 79.5599 164.804 79.5599 163.135 79.5599C161.466 79.5599 160.131 79.7268 159.13 80.0605C158.129 80.3942 157.461 81.2286 157.128 82.5635C157.128 83.5647 156.627 84.399 155.626 85.0665C154.291 86.4014 152.622 87.4026 150.62 88.0701C148.618 88.4038 146.782 88.9044 145.113 89.5719H144.613C143.945 89.5719 142.944 89.2382 141.609 88.5707C140.608 87.9032 139.774 87.7364 139.106 88.0701C138.772 88.4038 138.439 89.2382 138.105 90.5731C137.771 91.908 137.271 92.7424 136.603 93.0761V93.5767C134.601 94.2442 132.431 95.0785 130.095 96.0797C127.759 97.0809 125.59 98.0821 123.588 99.0833C121.585 100.085 119.249 101.253 116.579 102.588C114.243 103.589 112.241 104.256 110.572 104.59C109.904 104.59 109.571 103.922 109.571 102.588C109.904 101.253 109.738 100.919 109.07 101.586C107.068 102.588 105.065 104.423 103.063 107.093C101.061 109.763 99.225 111.598 97.5563 112.6C95.8877 113.934 94.0521 114.602 92.0497 114.602C90.3811 114.602 88.7124 115.269 87.0437 116.604C86.0425 117.605 85.0413 119.274 84.0401 121.61C83.3727 123.613 82.5383 125.114 81.5371 126.116C78.8673 128.786 76.1974 131.956 73.5275 135.627C73.1938 136.295 72.6932 136.962 72.0257 137.63C71.3583 138.297 71.0245 139.131 71.0245 140.132H70.5239C68.5215 144.137 67.5203 147.975 67.5203 151.646C67.5203 158.988 70.1902 164.328 75.5299 167.666C81.2034 171.003 87.5443 173.506 94.5527 175.175C95.8877 175.508 97.0557 176.009 98.0569 176.676C99.3919 177.344 100.727 177.511 102.062 177.177C103.397 176.509 104.565 176.176 105.566 176.176C107.235 176.176 108.57 176.843 109.571 178.178L117.08 179.68C121.085 180.681 123.087 181.682 123.087 182.684C123.087 183.351 122.086 184.018 120.083 184.686C118.415 185.02 116.746 185.187 115.077 185.187C109.07 185.187 101.728 184.018 93.0509 181.682C84.3739 179.012 76.5311 175.175 69.5227 170.169C62.5143 164.829 58.5095 158.321 57.5083 150.645C57.5083 150.311 57.0077 149.477 56.0065 148.142C55.3391 146.807 54.8385 145.639 54.5047 144.638C53.5035 141.634 53.0029 138.631 53.0029 135.627C53.0029 129.954 54.171 124.614 56.5071 119.608C59.177 114.602 62.6812 109.93 67.0197 105.591C68.6884 103.922 70.1902 102.754 71.5251 102.087C73.1938 101.419 75.0293 100.418 77.0317 99.0833C79.0341 97.7484 80.0353 96.5803 80.0353 95.5791C80.0353 94.5779 81.0365 93.4098 83.0389 92.0749C85.7088 90.4062 89.3799 88.4038 94.0521 86.0677C99.0581 83.7316 102.896 81.896 105.566 80.5611C107.568 80.5611 109.404 79.7268 111.073 78.0581C117.747 75.0545 124.756 72.3846 132.098 70.0485C139.44 67.3786 146.782 64.8756 154.124 62.5395C156.127 61.5383 158.129 61.0377 160.131 61.0377C162.134 61.0377 163.636 61.5383 164.637 62.5395C164.637 61.872 164.47 61.3714 164.136 61.0377C164.136 60.3702 164.47 59.8696 165.137 59.5359C173.481 56.866 181.824 54.6968 190.167 53.0281C198.511 51.0257 206.52 49.357 214.196 48.0221H214.697C215.698 48.0221 217.2 47.6884 219.202 47.0209H219.703C220.37 47.0209 220.871 47.0209 221.205 47.0209C221.872 46.6872 222.539 46.5203 223.207 46.5203C225.209 47.5215 227.212 47.1878 229.214 45.5191C238.225 43.8504 246.568 42.6824 254.244 42.0149C261.92 41.0137 268.428 40.5131 273.768 40.5131H275.269C275.937 40.5131 276.604 40.5131 277.272 40.5131C278.273 40.1794 279.107 40.0125 279.775 40.0125H284.781C285.782 39.6788 286.783 39.6788 287.784 40.0125C289.119 40.0125 290.12 40.0125 290.788 40.0125H291.289C295.293 40.0125 299.465 40.1794 303.804 40.5131C308.476 40.5131 313.148 40.5131 317.82 40.5131H318.321C319.656 40.8468 320.657 41.3474 321.325 42.0149C322.326 42.6824 323.494 42.3486 324.829 41.0137C333.84 41.3474 342.85 42.3486 351.861 44.0173C356.867 44.6848 362.874 46.0197 369.883 48.0221C377.225 49.6908 384.233 52.1938 390.908 55.5311C397.583 58.5347 403.089 62.3726 407.428 67.0449C412.1 71.7172 414.436 77.3906 414.436 84.0653C414.436 86.7352 413.936 89.5719 412.934 92.5755C411.933 95.5791 410.098 98.4158 407.428 101.086C404.758 103.422 402.088 105.925 399.418 108.595L393.411 114.101L389.907 115.102L385.902 117.105C378.56 120.442 370.55 124.28 361.873 128.619C353.196 132.624 344.018 135.794 334.34 138.13L329.835 139.131H329.334V139.632H328.834C328.166 139.966 327.332 140.132 326.331 140.132C325.329 139.799 324.328 139.966 323.327 140.633C306.974 144.972 291.455 147.975 276.771 149.644C273.434 149.978 271.765 150.645 271.765 151.646C271.765 152.314 272.933 153.148 275.269 154.149C277.939 154.817 279.942 155.484 281.277 156.152C287.617 158.154 294.292 160.323 301.301 162.66C308.309 164.662 315.484 167.165 322.826 170.169C324.829 170.502 326.831 171.17 328.834 172.171C331.17 173.172 332.838 174.674 333.84 176.676C334.173 176.009 334.674 175.842 335.341 176.176C336.009 176.509 336.509 176.676 336.843 176.676C341.182 178.679 345.353 180.848 349.358 183.184C353.363 185.52 357.034 188.023 360.371 190.693C361.039 192.362 361.373 193.196 361.373 193.196C363.709 193.196 365.377 193.864 366.379 195.198C367.38 196.533 368.548 198.035 369.883 199.704C373.554 203.709 376.391 208.047 378.393 212.72C380.395 217.058 381.397 221.73 381.397 226.736C381.397 228.071 381.23 229.406 380.896 230.741C380.896 232.076 380.729 233.578 380.395 235.246C388.071 230.908 393.745 225.235 397.416 218.226C398.083 217.225 398.918 216.724 399.919 216.724C401.921 216.724 402.589 217.892 401.921 220.229C400.252 224.567 397.082 229.406 392.41 234.746C388.071 239.752 383.065 243.59 377.392 246.26C377.392 246.593 377.225 246.927 376.891 247.261C375.222 251.266 373.554 254.269 371.885 256.272C371.551 257.607 370.884 258.608 369.883 259.275C369.215 259.943 368.715 260.777 368.381 261.778L367.88 262.279L365.878 263.28C365.544 263.614 365.21 264.114 364.877 264.782C364.877 265.449 364.543 266.117 363.876 266.784C364.543 267.452 364.376 267.786 363.375 267.786C355.032 277.798 344.352 286.141 331.337 292.816H330.836C328.5 294.15 327.665 294.484 328.333 293.817C329 293.483 329 292.982 328.333 292.315H327.832C325.162 293.65 323.494 294.651 322.826 295.319C321.825 295.319 320.657 295.652 319.322 296.32C318.321 296.987 317.82 297.321 317.82 297.321H315.317C314.984 297.321 314.149 297.655 312.814 298.322C311.813 299.323 310.979 299.991 310.311 300.325C308.643 300.325 307.475 300.825 306.807 301.826C306.14 301.826 305.305 301.826 304.304 301.826C303.303 301.826 302.302 301.993 301.301 302.327C300.967 302.661 299.298 302.828 296.295 302.828C293.625 303.161 291.956 303.495 291.289 303.829C290.955 304.162 289.787 304.663 287.784 305.331C285.782 305.998 284.447 306.332 283.78 306.332C283.446 306.332 283.112 306.165 282.778 305.831C282.778 305.831 282.611 305.831 282.278 305.831C281.944 305.831 281.61 305.998 281.277 306.332C280.943 306.999 280.442 307.333 279.775 307.333C279.107 307.333 278.44 307.166 277.772 306.832C277.105 306.499 276.437 306.332 275.77 306.332C275.436 306.332 274.769 306.499 273.768 306.832C273.1 307.5 272.433 307.834 271.765 307.834C271.098 307.834 270.43 307.667 269.763 307.333C269.429 307.333 268.762 307.5 267.76 307.834C267.093 308.167 266.425 308.334 265.758 308.334ZM141.109 313.841C138.772 313.841 137.604 311.338 137.604 306.332C137.604 302.994 138.272 298.823 139.607 293.817C141.275 289.144 143.278 283.638 145.614 277.297C148.284 274.961 149.619 271.957 149.619 268.286C150.286 268.62 150.62 268.62 150.62 268.286C150.954 267.619 151.121 267.285 151.121 267.285C151.788 266.284 152.122 265.283 152.122 264.281C152.122 262.946 152.289 261.778 152.622 260.777C158.63 245.759 166.305 229.406 175.65 211.718C176.317 210.383 176.985 210.05 177.652 210.717C178.654 211.051 179.321 210.884 179.655 210.217C179.988 209.883 180.155 209.048 180.155 207.714C180.155 206.712 179.988 205.711 179.655 204.71C179.655 203.709 180.155 202.541 181.157 201.206L188.165 188.691C197.843 171.337 207.521 154.65 217.2 138.631C227.212 122.612 236.556 110.263 245.233 101.586L246.735 100.585L248.237 98.0821C248.237 98.0821 248.571 97.9152 249.238 97.5815C249.906 97.2478 250.406 97.4146 250.74 98.0821C250.74 98.4158 250.406 99.0833 249.739 100.085C249.405 101.086 249.238 101.753 249.238 102.087C250.239 103.756 251.407 103.922 252.742 102.588C253.076 101.92 253.076 100.418 252.742 98.0821C252.409 95.746 252.409 94.5779 252.742 94.5779C253.41 94.2442 253.744 94.2442 253.744 94.5779C254.077 94.9116 254.411 95.0785 254.745 95.0785C255.412 95.0785 255.746 94.5779 255.746 93.5767C255.746 92.5755 255.913 91.908 256.247 91.5743C259.918 90.2394 263.255 89.5719 266.259 89.5719C267.927 89.5719 270.263 90.4062 273.267 92.0749C276.604 93.7436 278.273 96.0797 278.273 99.0833C278.273 100.752 277.439 102.754 275.77 105.09C275.436 105.424 275.102 106.092 274.769 107.093C274.435 107.76 273.934 108.428 273.267 109.095C272.933 109.429 272.599 109.596 272.266 109.596C272.266 109.262 271.932 109.262 271.265 109.596C270.931 109.93 270.43 110.097 269.763 110.097C269.429 109.763 268.928 109.596 268.261 109.596C267.593 109.596 267.427 110.097 267.76 111.098C268.428 112.099 268.595 112.766 268.261 113.1C267.927 113.434 267.593 113.434 267.26 113.1C266.926 112.766 266.425 112.933 265.758 113.601C265.424 113.934 265.591 114.268 266.259 114.602C267.26 114.602 267.427 114.936 266.759 115.603C264.757 117.606 262.254 119.775 259.25 122.111C256.58 124.113 253.91 126.116 251.241 128.118C250.907 128.452 250.573 128.452 250.239 128.118C249.906 127.451 249.572 127.284 249.238 127.618L245.734 132.623C242.397 135.961 239.059 139.465 235.722 143.136C232.385 146.807 228.88 150.979 225.209 155.651C224.208 157.654 223.04 159.489 221.705 161.158C220.37 162.826 218.535 163.494 216.199 163.16C216.199 163.494 216.532 163.994 217.2 164.662C217.867 164.996 217.867 165.663 217.2 166.664C211.526 174.674 205.853 183.017 200.179 191.694C194.506 200.371 189.166 209.382 184.16 218.727C181.824 222.732 178.987 227.904 175.65 234.245L171.145 243.256C170.811 244.257 170.31 244.758 169.643 244.758C169.309 244.424 168.808 244.257 168.141 244.257C168.808 245.592 169.142 246.76 169.142 247.762C169.142 250.431 167.64 253.268 164.637 256.272C160.298 266.284 156.293 275.795 152.622 284.806C148.951 293.817 146.115 302.16 144.112 309.836C143.445 312.506 142.443 313.841 141.109 313.841ZM267.76 299.824H268.762C269.429 300.158 270.263 299.824 271.265 298.823H273.267C274.602 298.155 275.436 297.821 275.77 297.821C276.437 297.821 276.938 298.155 277.272 298.823C277.605 299.824 278.44 299.824 279.775 298.823L281.777 298.322C282.445 297.655 283.112 297.321 283.78 297.321C284.447 297.321 285.114 297.154 285.782 296.82C286.449 296.487 286.783 295.986 286.783 295.319C287.117 294.985 287.617 294.985 288.285 295.319C288.952 295.319 289.286 295.319 289.286 295.319C289.62 295.652 289.954 295.819 290.287 295.819H290.788C291.789 295.819 293.124 295.319 294.793 294.317C296.461 293.316 297.296 292.816 297.296 292.816C297.963 292.816 298.631 292.315 299.298 291.314C299.966 290.646 300.466 290.312 300.8 290.312L304.805 289.311C306.807 288.31 308.309 287.81 309.31 287.81C309.644 287.142 310.645 286.475 312.314 285.807C313.982 285.14 314.817 284.639 314.817 284.305C315.484 283.638 316.485 283.137 317.82 282.803C319.155 282.47 319.99 282.136 320.323 281.802C321.658 281.802 324.829 279.8 329.835 275.795C335.174 271.79 339.68 266.617 343.351 260.277C343.685 259.609 342.683 259.776 340.347 260.777C338.011 261.778 335.508 262.946 332.838 264.281C330.502 265.283 329.167 265.783 328.834 265.783C328.5 265.783 327.665 266.451 326.331 267.786C324.996 268.787 324.161 269.287 323.828 269.287C323.16 269.955 322.493 270.289 321.825 270.289C321.825 270.289 321.158 269.955 319.823 269.287V270.289C319.155 270.289 318.655 270.455 318.321 270.789C317.987 270.789 317.487 270.789 316.819 270.789C316.152 270.789 315.15 271.123 313.816 271.79C312.481 272.458 311.646 272.792 311.313 272.792C310.979 272.792 310.478 272.958 309.811 273.292C309.477 273.292 308.976 273.125 308.309 272.792C306.974 274.126 304.471 275.128 300.8 275.795C297.129 276.463 294.459 276.796 292.79 276.796C292.457 276.796 292.29 276.796 292.29 276.796C292.623 276.463 292.623 276.296 292.29 276.296C291.956 276.296 291.622 276.463 291.289 276.796C290.955 276.796 290.454 276.796 289.787 276.796L288.786 277.798H284.781C283.78 277.798 282.611 277.964 281.277 278.298C280.275 278.632 279.441 278.632 278.774 278.298H277.772C277.439 278.298 276.938 278.298 276.271 278.298C275.937 278.632 275.436 278.799 274.769 278.799C274.435 278.799 274.101 278.632 273.768 278.298C273.768 277.964 273.434 277.631 272.766 277.297C272.433 277.297 272.099 277.464 271.765 277.798C271.431 278.465 270.931 278.799 270.263 278.799C269.93 278.799 269.596 278.632 269.262 278.298C269.262 278.298 269.095 278.298 268.762 278.298H266.759C266.759 278.632 266.425 278.799 265.758 278.799C265.424 278.799 265.257 278.632 265.257 278.298C265.257 278.298 265.09 278.298 264.757 278.298C264.089 278.298 263.255 278.465 262.254 278.799C261.586 279.132 260.919 279.299 260.251 279.299H259.25C259.25 278.632 258.916 278.131 258.249 277.798V278.298H253.744C251.741 277.964 249.739 277.297 247.736 276.296C245.734 275.295 243.898 274.627 242.23 274.293C241.896 274.293 241.562 274.46 241.229 274.794C241.229 275.128 241.062 275.295 240.728 275.295C240.394 275.295 240.06 275.128 239.727 274.794C239.727 274.46 239.56 274.293 239.226 274.293C238.892 274.293 238.559 274.46 238.225 274.794C238.225 274.794 237.891 274.46 237.224 273.793C236.556 273.793 235.221 273.459 233.219 272.792C233.219 271.79 232.718 271.29 231.717 271.29C231.717 270.622 229.715 269.788 225.71 268.787C221.705 267.786 219.369 267.118 218.702 266.784C218.368 266.451 217.7 265.95 216.699 265.283C216.032 264.615 215.531 264.615 215.197 265.283C214.196 264.949 212.861 264.114 211.193 262.78C209.524 261.111 208.189 260.277 207.188 260.277L205.185 257.273H204.685L203.183 259.776C203.183 260.11 203.35 260.944 203.684 262.279C204.351 263.614 204.518 264.615 204.184 265.283C204.852 265.616 205.185 266.284 205.185 267.285C205.185 268.286 205.519 268.787 206.187 268.787C206.187 270.789 206.854 272.792 208.189 274.794C208.189 275.128 209.023 275.795 210.692 276.796C212.694 277.798 213.529 278.465 213.195 278.799C214.53 280.134 215.197 281.135 215.197 281.802C216.532 283.137 217.2 284.138 217.2 284.806C217.533 285.14 217.7 285.307 217.7 285.307C218.034 285.307 218.201 285.307 218.201 285.307C218.535 285.974 219.369 287.142 220.704 288.811C222.373 290.479 223.541 291.314 224.208 291.314H225.209C225.543 291.647 226.211 292.315 227.212 293.316C228.547 294.317 229.381 294.818 229.715 294.818H230.215C232.885 294.818 235.555 295.152 238.225 295.819C241.229 296.82 244.065 297.488 246.735 297.821C246.735 297.821 247.069 297.988 247.736 298.322C248.738 298.656 249.739 298.99 250.74 299.323C253.41 299.657 256.58 299.657 260.251 299.323C263.922 299.323 266.425 299.49 267.76 299.824Z" fill="#00F152"/>
</svg>
