<svg width="70" height="56" viewBox="0 0 70 56" fill="none" xmlns="http://www.w3.org/2000/svg">
<path fill-rule="evenodd" clip-rule="evenodd" d="M28.2463 0.782319C27.8289 0.420631 27.1974 0.465772 26.8357 0.883145C26.474 1.30052 26.5191 1.93207 26.9365 2.29376L48.8797 21.3094V34.9998C48.1253 33.7416 47.215 32.7404 46.2325 31.958C43.9822 30.1659 41.4228 29.5766 39.6772 29.5939C36.0123 29.2414 33.0917 30.9541 31.126 33.1779C29.1774 35.3824 28.0537 38.2126 28.0537 40.3359V53.7797H2.50513V21.3162L16.4275 9.5234C16.8489 9.16644 16.9012 8.53544 16.5442 8.11401C16.1872 7.69259 15.5562 7.64034 15.1348 7.9973L0.858789 20.0897C0.634475 20.2797 0.505127 20.5588 0.505127 20.8528V54.7797C0.505127 55.332 0.952842 55.7797 1.50513 55.7797H29.0537C29.606 55.7797 30.0537 55.332 30.0537 54.7797V40.3359C30.0537 38.7973 30.9286 36.4211 32.6245 34.5024C34.2929 32.615 36.642 31.2944 39.5332 31.5895C39.5729 31.5935 39.6129 31.5952 39.6528 31.5945C40.9854 31.5702 43.1119 32.0295 44.9866 33.5225C46.8233 34.9852 48.491 37.4975 48.8796 41.7235V54.9742C48.8796 55.4191 49.2403 55.7797 49.6852 55.7797H50.2169C50.6618 55.7797 51.0224 55.4191 51.0224 54.9742V46.5045C51.0632 45.5249 51.4612 44.4841 52.2163 43.3821C52.8107 42.4985 53.4557 41.8489 54.1513 41.4332C54.4157 41.2753 54.7264 41.4824 54.7264 41.7903C54.7264 42.1985 54.8591 42.5352 55.1244 42.8005C55.3896 43.0658 55.7264 43.1985 56.1345 43.1985C56.5427 43.1985 56.8794 43.0658 57.1447 42.8005C57.4304 42.5352 57.5733 42.1985 57.5733 41.7903C57.5733 41.3822 57.4304 41.0455 57.1447 40.7802C56.8794 40.4945 56.2178 40.0232 55.8096 40.0232H55.6872C54.5339 40.0636 52.8088 41.3475 52.0489 42.6037C52.0358 42.6255 52.0109 42.6574 51.9943 42.6767C51.6948 43.0226 50.8733 42.8982 50.8733 42.4407V41.7938C50.8776 41.7563 50.8797 41.7181 50.8797 41.6795V20.8528C50.8797 20.5627 50.7538 20.287 50.5346 20.097L28.2463 0.782319ZM35.8501 42.6795L43.382 42.6795C43.9343 42.6795 44.382 42.2317 44.382 41.6795C44.382 41.1272 43.9343 40.6795 43.382 40.6795L35.8501 40.6795C35.2978 40.6795 34.8501 41.1272 34.8501 41.6795C34.8501 42.2318 35.2978 42.6795 35.8501 42.6795ZM61.5642 33.6268C61.5642 33.1819 61.2035 32.8212 60.7586 32.8212H60.227C59.7821 32.8212 59.4214 33.1819 59.4214 33.6268V54.9742C59.4214 55.4191 59.7821 55.7797 60.227 55.7797H60.7586C61.2035 55.7797 61.5642 55.4191 61.5642 54.9742V48.6843C61.5642 48.5025 61.63 48.3269 61.7494 48.1898C62.0736 47.8175 62.6623 47.8527 62.9399 48.2609L67.814 55.4272C67.964 55.6477 68.2134 55.7797 68.4801 55.7797H68.6596C69.3093 55.7797 69.6917 55.0501 69.322 54.5158L64.5602 47.6343C64.3745 47.3659 64.3691 47.0119 64.5466 46.7379L68.4711 40.6805C68.5287 40.5915 68.4649 40.4741 68.3588 40.4741C68.3206 40.4741 68.2842 40.4904 68.2588 40.519L62.9724 46.4783C62.4806 47.0327 61.5642 46.6848 61.5642 45.9437V33.6268Z" fill="white"/>
</svg>
